<svg version="1.1" xmlns="http://www.w3.org/2000/svg" viewBox="0 0 141.34317557359464 490.7788128672473" width="424.0295267207839" height="1472.336438601742">
  <!-- svg-source:excalidraw -->
  
  <defs>
    <style class="style-fonts">
      @font-face {
        font-family: "Virgil";
        src: url("https://excalidraw.com/Virgil.woff2");
      }
      @font-face {
        font-family: "Cascadia";
        src: url("https://excalidraw.com/Cascadia.woff2");
      }
      @font-face {
        font-family: "Assistant";
        src: url("https://excalidraw.com/Assistant-Regular.woff2");
      }
    </style>
    
  </defs>
  <g transform="translate(61.14104890062299 10.26585611432347) rotate(0 9.530538886174327 235.1235503193002)" stroke="none"><path fill="#9c36b5" d="M 5.10,-3.60 Q 5.10,-3.60 10.89,4.82 16.69,13.25 21.18,22.06 25.68,30.86 28.91,40.92 32.14,50.98 34.15,62.63 36.15,74.28 37.27,86.62 38.39,98.96 38.94,110.84 39.49,122.72 39.72,134.29 39.94,145.86 39.76,156.90 39.58,167.94 38.54,177.63 37.50,187.33 35.28,196.08 33.07,204.83 29.96,212.39 26.85,219.95 23.11,226.06 19.37,232.16 15.29,236.75 11.21,241.34 6.49,244.52 1.77,247.70 -3.79,249.52 -9.36,251.34 -15.71,251.30 -22.06,251.26 -28.47,248.77 -34.88,246.27 -40.08,242.36 -45.29,238.45 -49.14,233.81 -52.98,229.17 -55.42,223.68 -57.86,218.18 -58.95,212.31 -60.04,206.44 -59.86,200.53 -59.68,194.61 -57.78,188.83 -55.88,183.04 -52.29,178.23 -48.70,173.42 -43.74,170.08 -38.79,166.73 -30.79,165.19 -22.78,163.66 -17.27,163.38 -11.76,163.10 -6.48,163.91 -1.20,164.72 3.89,167.27 8.99,169.81 13.55,175.06 18.11,180.31 21.23,187.99 24.35,195.67 26.17,205.84 28.00,216.00 29.38,228.62 30.76,241.24 31.93,255.76 33.10,270.29 34.20,285.93 35.30,301.56 36.35,316.46 37.40,331.35 38.50,344.29 39.59,357.23 41.24,372.60 42.89,387.97 43.96,397.51 45.03,407.06 46.16,412.97 47.30,418.88 48.61,423.93 49.92,428.98 45.11,433.81 40.29,438.64 33.60,434.89 26.91,431.14 20.44,425.20 13.97,419.26 9.26,415.65 4.56,412.04 -0.65,408.51 -5.87,404.97 -7.33,404.06 -8.79,403.15 -9.61,402.29 -10.43,401.42 -11.02,400.39 -11.61,399.36 -11.94,398.21 -12.27,397.07 -12.31,395.88 -12.35,394.69 -12.11,393.52 -11.87,392.35 -11.35,391.28 -10.84,390.21 -10.08,389.29 -9.32,388.37 -8.37,387.66 -7.41,386.95 -6.31,386.49 -5.22,386.02 -4.04,385.84 -2.86,385.65 -1.68,385.75 -0.49,385.85 0.63,386.24 1.76,386.62 2.76,387.26 3.76,387.90 9.14,393.84 14.52,399.78 18.52,405.07 22.51,410.36 26.83,417.13 31.15,423.90 35.15,430.34 39.14,436.77 42.70,441.98 46.26,447.20 49.17,450.86 52.08,454.53 55.41,457.94 58.74,461.36 59.81,461.85 60.87,462.35 61.64,463.34 62.41,464.33 62.92,465.48 63.44,466.62 63.66,467.86 63.88,469.09 63.80,470.35 63.72,471.60 63.34,472.80 62.97,473.99 62.31,475.07 61.66,476.14 60.77,477.02 59.88,477.91 58.81,478.55 57.73,479.20 56.53,479.57 55.33,479.94 54.08,480.01 52.82,480.08 51.59,479.85 50.36,479.62 49.21,479.11 48.07,478.59 47.08,477.81 46.10,477.03 44.86,470.55 43.63,464.06 44.01,459.08 44.39,454.09 45.37,446.54 46.36,439.00 47.59,430.45 48.82,421.90 50.14,413.01 51.46,404.12 52.78,396.31 54.09,388.51 55.11,382.63 56.12,376.75 56.91,372.56 57.70,368.37 58.81,363.63 59.93,358.90 60.74,357.01 61.56,355.12 62.47,353.85 63.38,352.58 64.65,351.67 65.92,350.76 67.41,350.30 68.90,349.85 70.46,349.89 72.02,349.93 73.49,350.47 74.95,351.01 76.17,351.99 77.38,352.97 78.22,354.29 79.06,355.60 79.44,357.12 79.81,358.63 79.69,360.19 79.56,361.74 78.94,363.18 78.32,364.61 77.28,365.77 76.24,366.93 74.88,367.70 73.52,368.47 71.98,368.76 70.45,369.05 68.90,368.84 67.36,368.63 65.96,367.93 64.56,367.24 63.46,366.14 62.36,365.03 61.66,363.63 60.97,362.23 60.76,360.69 60.55,359.14 60.85,357.61 61.14,356.07 61.91,354.72 62.68,353.36 63.85,352.32 65.01,351.27 66.44,350.66 67.88,350.04 69.43,349.92 70.99,349.79 72.50,350.17 74.02,350.55 75.33,351.39 76.65,352.23 77.62,353.45 78.60,354.67 79.14,356.13 79.67,357.60 79.71,359.16 79.76,360.72 79.30,362.21 78.84,363.70 78.84,363.70 78.84,363.70 77.56,365.89 76.27,368.08 73.92,374.07 71.56,380.06 70.17,385.41 68.77,390.76 67.76,398.19 66.74,405.63 66.31,414.42 65.87,423.20 65.80,431.80 65.72,440.40 63.30,451.38 60.87,462.35 61.64,463.34 62.41,464.33 62.92,465.48 63.44,466.62 63.66,467.86 63.88,469.09 63.80,470.35 63.72,471.60 63.34,472.80 62.97,473.99 62.32,475.07 61.66,476.14 60.77,477.02 59.88,477.91 58.81,478.55 57.73,479.20 56.53,479.57 55.33,479.94 54.08,480.01 52.82,480.08 51.59,479.85 50.36,479.62 49.21,479.11 48.07,478.59 47.08,477.81 46.10,477.03 44.79,475.76 43.48,474.49 40.33,469.92 37.17,465.36 34.42,461.23 31.67,457.10 28.10,451.81 24.53,446.52 20.28,440.60 16.04,434.68 11.35,428.83 6.66,422.97 2.64,418.19 -1.37,413.40 -5.08,408.28 -8.79,403.15 -9.61,402.29 -10.43,401.43 -11.02,400.39 -11.61,399.36 -11.94,398.21 -12.27,397.07 -12.31,395.88 -12.35,394.69 -12.11,393.52 -11.87,392.36 -11.35,391.28 -10.84,390.21 -10.08,389.29 -9.32,388.37 -8.37,387.66 -7.41,386.95 -6.31,386.49 -5.22,386.02 -4.04,385.84 -2.86,385.65 -1.68,385.75 -0.49,385.85 0.63,386.24 1.75,386.62 2.76,387.26 3.76,387.90 4.87,389.05 5.98,390.21 10.55,394.55 15.13,398.89 19.71,402.74 24.29,406.60 31.63,411.92 38.96,417.23 40.99,421.01 43.02,424.78 38.70,427.71 34.38,430.65 34.45,425.58 34.52,420.51 34.13,414.46 33.75,408.42 32.52,398.86 31.29,389.30 29.41,373.85 27.53,358.39 26.12,345.41 24.72,332.42 23.26,317.59 21.80,302.76 20.15,287.30 18.51,271.85 16.63,257.73 14.74,243.62 12.51,231.93 10.28,220.23 7.71,212.02 5.14,203.81 2.84,198.79 0.55,193.77 -2.61,189.84 -5.78,185.91 -12.49,185.15 -19.19,184.38 -23.68,185.03 -28.16,185.68 -32.34,188.32 -36.51,190.96 -38.29,197.25 -40.07,203.54 -38.80,210.66 -37.53,217.79 -32.36,223.83 -27.19,229.88 -20.17,232.54 -13.15,235.20 -5.81,233.22 1.51,231.24 5.29,228.15 9.07,225.06 12.82,220.22 16.57,215.38 19.70,208.79 22.82,202.20 24.88,194.19 26.94,186.18 27.93,176.97 28.92,167.77 29.07,156.93 29.23,146.09 28.97,134.66 28.71,123.24 28.12,111.61 27.53,99.98 26.39,88.08 25.25,76.17 23.33,65.31 21.42,54.45 18.42,45.31 15.41,36.17 11.16,28.16 6.92,20.14 0.90,11.87 -5.10,3.60 -5.46,2.94 -5.81,2.28 -6.00,1.55 -6.19,0.82 -6.20,0.06 -6.21,-0.68 -6.03,-1.41 -5.86,-2.15 -5.52,-2.82 -5.18,-3.49 -4.68,-4.06 -4.19,-4.63 -3.58,-5.06 -2.96,-5.50 -2.26,-5.77 -1.56,-6.05 -0.81,-6.14 -0.06,-6.24 0.67,-6.16 1.42,-6.08 2.13,-5.82 2.84,-5.56 3.46,-5.14 4.09,-4.72 4.59,-4.16 5.10,-3.60 5.10,-3.60 L 5.10,-3.60 Z"></path></g></svg>