<svg version="1.1" xmlns="http://www.w3.org/2000/svg" viewBox="0 0 585.9286618632577 681.2623175143362" width="1757.7859855897732" height="2043.7869525430087">
  <!-- svg-source:excalidraw -->
  
  <defs>
    <style class="style-fonts">
      @font-face {
        font-family: "Virgil";
        src: url("https://excalidraw.com/Virgil.woff2");
      }
      @font-face {
        font-family: "Cascadia";
        src: url("https://excalidraw.com/Cascadia.woff2");
      }
      @font-face {
        font-family: "Assistant";
        src: url("https://excalidraw.com/Assistant-Regular.woff2");
      }
    </style>
    
  </defs>
  <g transform="translate(318.7450921646814 10) rotate(0 -25.780761233052544 330.6311587571681)" stroke="none"><path fill="#9c36b5" d="M 9.23,0 Q 9.23,0 8.96,7.52 8.69,15.05 8.24,23.70 7.78,32.34 7.87,38.85 7.97,45.37 8.14,51.19 8.31,57.02 8.44,62.18 8.56,67.34 7.88,72.60 7.19,77.85 5.15,83.41 3.12,88.98 0.16,94.19 -2.78,99.41 -6.67,104.44 -10.55,109.48 -15.56,114.56 -20.58,119.64 -26.47,124.65 -32.37,129.67 -39.06,134.54 -45.76,139.40 -53.89,144.32 -62.01,149.24 -72.07,154.15 -82.12,159.07 -93.54,163.61 -104.97,168.16 -116.59,172.16 -128.21,176.17 -139.19,179.70 -150.16,183.23 -160.89,186.67 -171.61,190.10 -181.96,193.65 -192.31,197.19 -201.89,200.73 -211.47,204.28 -219.77,207.55 -228.07,210.81 -235.07,214.10 -242.08,217.39 -248.52,220.83 -254.96,224.26 -260.53,227.76 -266.10,231.26 -270.89,234.84 -275.69,238.42 -279.51,241.87 -283.33,245.32 -287.89,251.34 -292.46,257.35 -294.48,264.46 -296.49,271.57 -297.14,276.63 -297.78,281.69 -298.16,287.37 -298.55,293.05 -298.17,298.49 -297.80,303.94 -296.08,308.18 -294.36,312.42 -291.36,315.90 -288.35,319.38 -283.69,322.94 -279.03,326.50 -272.69,329.75 -266.34,332.99 -258.24,335.40 -250.15,337.81 -239.78,339.31 -229.42,340.81 -216.94,341.46 -204.46,342.11 -190.22,341.23 -175.98,340.35 -159.87,337.52 -143.76,334.70 -126.83,330.80 -109.91,326.90 -93.30,322.43 -76.68,317.95 -59.30,313.10 -41.92,308.25 -24.72,303.69 -7.52,299.12 8.02,295.23 23.56,291.34 37.22,288.03 50.88,284.72 62.65,282.18 74.42,279.63 85.46,277.96 96.51,276.28 107.72,275.23 118.94,274.17 129.28,273.58 139.61,273.00 148.78,272.75 157.95,272.50 166.31,272.35 174.67,272.21 181.68,271.87 188.68,271.53 194.66,271.15 200.63,270.77 206.19,270.77 211.76,270.77 217.17,271.71 222.59,272.65 227.55,274.49 232.51,276.34 236.82,278.74 241.13,281.14 244.82,283.97 248.50,286.79 251.53,289.94 254.56,293.09 256.99,296.59 259.41,300.09 262.68,307.79 265.95,315.49 267.10,323.72 268.25,331.94 268.30,340.64 268.35,349.34 266.93,355.61 265.50,361.88 262.45,368.31 259.39,374.74 254.96,380.70 250.52,386.66 244.46,392.26 238.40,397.85 231.34,402.56 224.27,407.28 216.61,411.07 208.95,414.86 200.61,417.92 192.26,420.97 183.33,423.77 174.40,426.56 164.83,429.30 155.27,432.04 145.42,434.64 135.58,437.25 126.15,439.68 116.72,442.11 108.41,444.41 100.11,446.71 92.91,449.22 85.72,451.72 79.50,454.28 73.28,456.84 68.44,459.40 63.60,461.96 60.10,464.56 56.60,467.16 52.31,473.27 48.01,479.38 45.94,483.91 43.88,488.45 41.90,494.47 39.92,500.49 38.07,508.13 36.21,515.77 35.07,524.53 33.92,533.28 33.31,542.44 32.70,551.59 32.36,560.53 32.01,569.47 31.86,577.72 31.71,585.97 31.97,592.39 32.23,598.80 32.61,603.18 33.00,607.56 33.46,613.17 33.91,618.77 27.25,621.68 20.60,624.59 14.18,616.82 7.76,609.05 4.55,602.96 1.33,596.87 -1.56,591.12 -4.46,585.36 -6.67,581.42 -8.89,577.48 -11.21,573.24 -13.54,568.99 -15.95,564.08 -18.37,559.17 -21.39,552.30 -24.41,545.43 -26.71,540.68 -29.01,535.93 -29.57,535.08 -30.12,534.23 -30.56,532.85 -30.99,531.46 -31.08,530.02 -31.17,528.57 -30.91,527.14 -30.65,525.71 -30.06,524.39 -29.47,523.06 -28.57,521.92 -27.68,520.78 -26.54,519.88 -25.40,518.98 -24.08,518.39 -22.76,517.79 -21.33,517.52 -19.90,517.26 -18.45,517.35 -17.01,517.43 -15.62,517.86 -14.23,518.29 -12.99,519.04 -11.75,519.79 -10.72,520.81 -9.69,521.83 -8.94,523.07 -8.19,524.31 -8.40,529.04 -8.60,533.77 -5.88,541.99 -3.16,550.20 0.02,561.31 3.22,572.42 6.98,584.06 10.75,595.69 14.22,605.85 17.70,616.00 20.48,623.42 23.26,630.83 25.45,635.27 27.64,639.71 30.20,643.65 32.76,647.58 34.92,640.57 37.08,633.55 41.49,626.22 45.89,618.89 50.02,611.55 54.14,604.21 57.98,597.11 61.82,590.01 65.16,583.81 68.49,577.61 71.50,572.29 74.50,566.97 76.95,562.78 79.39,558.58 82.89,553.34 86.39,548.11 89.07,544.79 91.75,541.47 93.41,539.87 95.07,538.27 96.50,537.38 97.93,536.48 99.57,536.09 101.21,535.70 102.89,535.85 104.57,536.00 106.11,536.68 107.65,537.36 108.89,538.50 110.14,539.64 110.95,541.11 111.77,542.59 112.07,544.24 112.37,545.90 112.13,547.57 111.89,549.24 111.13,550.74 110.36,552.24 109.16,553.42 107.96,554.60 106.44,555.34 104.93,556.07 103.25,556.29 101.58,556.50 99.93,556.17 98.28,555.83 96.82,554.99 95.36,554.15 94.24,552.88 93.13,551.62 92.48,550.06 91.83,548.51 91.71,546.83 91.58,545.15 92.01,543.51 92.43,541.88 93.35,540.47 94.27,539.06 95.59,538.02 96.92,536.97 98.50,536.41 100.09,535.84 101.78,535.81 103.46,535.78 105.07,536.29 106.67,536.80 108.03,537.80 109.39,538.79 110.36,540.17 111.33,541.55 111.81,543.16 112.29,544.78 112.23,546.46 112.17,548.15 111.57,549.72 110.98,551.30 109.91,552.60 108.84,553.91 108.84,553.91 108.84,553.90 104.84,557.14 100.84,560.37 97.11,564.14 93.38,567.90 90.61,571.53 87.84,575.16 84.62,579.97 81.41,584.78 78.04,590.67 74.67,596.56 71.20,603.78 67.74,611.00 64.30,618.80 60.86,626.60 57.45,634.46 54.03,642.32 50.37,650.96 46.71,659.60 42.42,664.00 38.13,668.41 30.11,666.03 22.08,663.66 19.12,659.09 16.15,654.52 14.74,650.05 13.32,645.58 11.73,640.81 10.14,636.03 7.06,628.64 3.97,621.25 -0.23,611.29 -4.45,601.32 -9.22,589.89 -14.00,578.46 -18.57,567.41 -23.15,556.36 -26.64,545.30 -30.12,534.23 -30.56,532.85 -30.99,531.46 -31.08,530.02 -31.17,528.57 -30.91,527.14 -30.65,525.71 -30.06,524.39 -29.47,523.07 -28.57,521.92 -27.68,520.78 -26.54,519.88 -25.40,518.98 -24.08,518.39 -22.76,517.79 -21.33,517.52 -19.90,517.26 -18.46,517.35 -17.01,517.43 -15.62,517.86 -14.23,518.29 -12.99,519.04 -11.75,519.79 -10.72,520.81 -9.69,521.83 -8.94,523.07 -8.19,524.31 -7.77,525.22 -7.35,526.12 -5.28,531.39 -3.21,536.65 -0.47,543.81 2.26,550.96 3.52,555.27 4.78,559.58 6.33,564.32 7.88,569.05 9.71,573.17 11.55,577.29 14.34,582.83 17.13,588.37 20.19,593.93 23.24,599.49 25.86,605.58 28.48,611.66 23.24,609.59 17.99,607.52 18.40,603.13 18.82,598.75 19.13,592.31 19.44,585.87 19.42,577.57 19.40,569.26 19.35,560.17 19.31,551.08 19.41,541.53 19.51,531.97 20.04,522.39 20.57,512.82 21.82,504.03 23.08,495.25 25.29,487.83 27.51,480.41 30.44,474.82 33.37,469.23 36.85,464.78 40.34,460.33 44.34,457.11 48.34,453.89 53.03,451.43 57.73,448.97 63.27,446.85 68.81,444.74 75.39,442.58 81.97,440.42 89.45,438.06 96.93,435.69 105.28,433.19 113.62,430.70 122.93,428.04 132.23,425.39 141.82,422.51 151.41,419.63 160.61,416.52 169.81,413.42 178.13,410.19 186.45,406.96 193.70,403.54 200.96,400.11 207.28,396.32 213.61,392.52 219.05,388.17 224.49,383.83 228.87,379.02 233.26,374.22 236.29,369.76 239.33,365.30 242.25,356.89 245.16,348.48 245.32,340.89 245.48,333.29 245.20,327.44 244.91,321.58 243.33,316.21 241.74,310.84 238.86,306.03 235.98,301.21 230.72,296.60 225.46,291.98 218.11,288.73 210.76,285.47 205.72,284.78 200.67,284.10 194.71,283.75 188.76,283.41 181.78,283.16 174.81,282.91 166.52,282.98 158.24,283.04 149.22,283.29 140.21,283.54 130.07,284.12 119.93,284.70 109.02,285.73 98.10,286.77 87.39,288.40 76.67,290.04 65.04,292.57 53.41,295.11 39.80,298.44 26.20,301.77 10.73,305.70 -4.72,309.62 -21.83,314.23 -38.94,318.83 -56.34,323.79 -73.74,328.74 -90.51,333.39 -107.29,338.04 -124.47,342.16 -141.64,346.29 -158.37,349.44 -175.09,352.59 -190.00,353.81 -204.90,355.03 -217.97,354.79 -231.04,354.55 -242.43,353.48 -253.83,352.41 -263.56,350.29 -273.29,348.18 -281.61,344.66 -289.93,341.15 -296.57,336.22 -303.20,331.30 -307.70,325.26 -312.20,319.21 -314.52,312.33 -316.83,305.45 -317.30,298.64 -317.77,291.83 -317.38,285.42 -316.98,279.00 -316.04,272.74 -315.09,266.48 -313.35,260.97 -311.61,255.45 -309.13,251.06 -306.64,246.67 -303.53,243.12 -300.41,239.57 -296.67,236.44 -292.92,233.32 -288.27,230.00 -283.62,226.69 -278.12,223.31 -272.62,219.93 -266.50,216.71 -260.38,213.48 -253.55,210.26 -246.73,207.04 -239.41,203.89 -232.08,200.73 -223.70,197.36 -215.33,194.00 -205.66,190.32 -195.99,186.65 -185.58,182.96 -175.17,179.27 -164.52,175.68 -153.87,172.09 -143.10,168.38 -132.33,164.68 -121.12,160.49 -109.92,156.30 -99.18,151.60 -88.44,146.89 -79.34,141.85 -70.23,136.81 -63.10,131.63 -55.97,126.44 -50.17,121.46 -44.36,116.47 -39.30,111.52 -34.23,106.58 -30.04,102.02 -25.84,97.46 -22.62,93.45 -19.40,89.45 -16.91,85.55 -14.42,81.66 -11.68,74.31 -8.94,66.97 -8.63,61.99 -8.31,57.02 -8.14,51.19 -7.97,45.37 -7.87,38.85 -7.78,32.34 -8.24,23.70 -8.69,15.05 -8.96,7.52 -9.23,0 -9.10,-1.10 -8.96,-2.20 -8.57,-3.25 -8.17,-4.29 -7.54,-5.20 -6.91,-6.12 -6.07,-6.86 -5.24,-7.59 -4.25,-8.11 -3.27,-8.63 -2.19,-8.90 -1.11,-9.16 0.00,-9.16 1.11,-9.16 2.19,-8.90 3.27,-8.63 4.26,-8.11 5.24,-7.59 6.07,-6.86 6.91,-6.12 7.54,-5.20 8.17,-4.29 8.57,-3.24 8.96,-2.20 9.10,-1.10 9.23,0.00 9.23,0.00 L 9.23,0 Z"></path></g></svg>