<svg version="1.1" xmlns="http://www.w3.org/2000/svg" viewBox="0 0 289.7427507276552 644.1540459591906" width="869.2282521829657" height="1932.4621378775719">
  <!-- svg-source:excalidraw -->
  
  <defs>
    <style class="style-fonts">
      @font-face {
        font-family: "Virgil";
        src: url("https://excalidraw.com/Virgil.woff2");
      }
      @font-face {
        font-family: "Cascadia";
        src: url("https://excalidraw.com/Cascadia.woff2");
      }
      @font-face {
        font-family: "Assistant";
        src: url("https://excalidraw.com/Assistant-Regular.woff2");
      }
    </style>
    
  </defs>
  <g transform="translate(279.7427507276552 10) rotate(0 -110.36876539786499 272.9075013077081)" stroke="none"><path fill="#9c36b5" d="M 6.03,1.63 Q 6.03,1.63 3.52,10.35 1.02,19.06 -4.25,33.74 -9.53,48.42 -16.28,67.34 -23.03,86.25 -29.69,106.90 -36.36,127.55 -41.49,147.14 -46.63,166.73 -49.25,185.11 -51.86,203.49 -52.99,221.29 -54.11,239.09 -54.44,254.48 -54.76,269.86 -53.50,281.11 -52.24,292.36 -49.20,298.98 -46.15,305.60 -42.07,308.91 -37.98,312.22 -33.64,313.59 -29.31,314.97 -22.11,315.48 -14.92,315.99 -18.32,319.22 -21.71,322.46 -26.19,320.91 -30.68,319.36 -37.81,317.98 -44.95,316.60 -53.89,317.00 -62.83,317.41 -72.34,320.77 -81.84,324.14 -92.45,331.54 -103.06,338.93 -114.11,350.04 -125.17,361.15 -135.43,374.77 -145.70,388.39 -155.15,403.35 -164.59,418.32 -172.79,433.08 -180.99,447.85 -187.44,460.77 -193.90,473.70 -198.54,484.00 -203.18,494.31 -206.35,502.48 -209.51,510.66 -210.86,516.73 -212.21,522.80 -212.37,529.98 -212.53,537.16 -212.28,540.99 -212.03,544.83 -212.21,545.86 -212.38,546.90 -212.80,547.86 -213.22,548.82 -213.86,549.66 -214.50,550.49 -215.31,551.15 -216.13,551.81 -217.08,552.25 -218.04,552.70 -219.07,552.90 -220.10,553.10 -221.14,553.05 -222.19,553.00 -223.20,552.70 -224.21,552.40 -225.11,551.87 -226.02,551.34 -226.77,550.60 -227.52,549.87 -228.07,548.98 -228.63,548.09 -228.95,547.09 -229.28,546.09 -229.36,545.05 -229.43,544.00 -229.24,542.90 -229.04,541.80 -228.40,540.54 -227.77,539.28 -226.77,538.29 -225.76,537.30 -224.50,536.69 -223.23,536.07 -221.83,535.89 -220.43,535.71 -219.05,535.98 -217.67,536.26 -216.45,536.96 -215.23,537.66 -214.29,538.72 -213.36,539.78 -212.81,541.07 -212.27,542.37 -212.16,543.78 -212.06,545.18 -212.41,546.55 -212.76,547.91 -213.52,549.10 -214.29,550.28 -215.40,551.15 -216.50,552.03 -217.83,552.50 -219.15,552.98 -220.56,553.01 -221.97,553.03 -223.32,552.61 -224.66,552.19 -225.80,551.36 -226.94,550.53 -227.75,549.38 -228.56,548.23 -228.97,546.88 -229.37,545.53 -229.32,544.12 -229.27,542.71 -228.78,541.39 -228.28,540.07 -227.39,538.98 -226.50,537.89 -225.31,537.14 -224.11,536.39 -222.74,536.06 -221.37,535.73 -219.97,535.85 -218.57,535.98 -217.28,536.54 -215.99,537.11 -214.95,538.06 -213.90,539.01 -213.22,540.24 -212.53,541.47 -212.28,542.86 -212.02,544.24 -212.03,544.53 -212.03,544.83 -212.21,545.86 -212.38,546.90 -212.80,547.86 -213.22,548.82 -213.86,549.66 -214.49,550.49 -215.31,551.15 -216.13,551.81 -217.08,552.25 -218.03,552.69 -219.06,552.90 -220.09,553.10 -221.14,553.05 -222.19,553.00 -223.20,552.70 -224.20,552.40 -225.11,551.87 -226.02,551.34 -226.77,550.61 -227.52,549.87 -228.07,548.98 -228.63,548.09 -228.95,547.09 -229.28,546.09 -229.36,545.05 -229.43,544.00 -229.12,541.81 -228.81,539.62 -227.68,534.29 -226.54,528.96 -225.28,524.20 -224.01,519.44 -221.81,513.11 -219.62,506.78 -216.39,498.31 -213.17,489.85 -208.51,479.31 -203.85,468.78 -197.38,455.59 -190.92,442.39 -182.69,427.28 -174.46,412.16 -164.92,396.68 -155.38,381.20 -144.80,366.76 -134.22,352.33 -122.56,340.18 -110.90,328.03 -99.00,319.33 -87.11,310.63 -75.76,306.08 -64.41,301.53 -53.59,300.17 -42.78,298.81 -33.31,299.53 -23.83,300.26 -16.80,302.91 -9.76,305.56 -5.34,309.41 -0.93,313.26 -1.39,321.51 -1.86,329.75 -6.91,331.58 -11.95,333.40 -18.27,332.17 -24.59,330.94 -29.82,329.32 -35.06,327.70 -40.82,324.45 -46.59,321.21 -51.32,315.69 -56.06,310.18 -59.41,301.92 -62.76,293.66 -64.09,281.66 -65.42,269.66 -65.11,254.04 -64.81,238.42 -63.68,220.20 -62.56,201.98 -59.87,182.98 -57.19,163.99 -52.04,144.09 -46.89,124.18 -40.28,103.34 -33.66,82.50 -27.04,63.54 -20.43,44.57 -15.47,30.25 -10.51,15.94 -8.27,7.15 -6.03,-1.63 -5.74,-2.33 -5.46,-3.02 -5.02,-3.63 -4.58,-4.24 -4.00,-4.73 -3.43,-5.22 -2.75,-5.55 -2.08,-5.89 -1.34,-6.05 -0.61,-6.21 0.14,-6.20 0.89,-6.18 1.62,-5.98 2.34,-5.79 3.00,-5.42 3.66,-5.05 4.21,-4.54 4.77,-4.03 5.18,-3.40 5.59,-2.77 5.84,-2.06 6.09,-1.35 6.17,-0.60 6.24,0.14 6.13,0.88 6.03,1.63 6.03,1.63 L 6.03,1.63 Z"></path></g><g transform="translate(10 521.5276565565582) rotate(0 71.11770425854047 56.313194701316206)" stroke="none"><path fill="#9c36b5" d="M 8.28,-3.01 Q 8.28,-3.01 11.43,7.00 14.59,17.03 18.65,25.81 22.72,34.59 27.16,42.27 31.60,49.96 35.73,56.24 39.86,62.51 43.52,67.73 47.18,72.95 50.29,77.32 53.40,81.68 55.87,85.45 58.34,89.21 61.63,94.74 64.91,100.27 57.75,103.88 50.59,107.49 52.75,103.08 54.91,98.68 59.65,93.01 64.39,87.34 71.28,80.02 78.18,72.71 85.15,65.02 92.13,57.34 98.28,50.38 104.44,43.42 109.45,37.39 114.46,31.37 118.02,26.58 121.59,21.79 123.99,18.28 126.40,14.77 129.28,10.57 132.15,6.37 133.85,4.51 135.55,2.64 136.81,1.76 138.07,0.87 139.54,0.43 141.02,-0.00 142.56,0.04 144.10,0.09 145.54,0.64 146.98,1.18 148.18,2.15 149.37,3.13 150.19,4.43 151.01,5.74 151.37,7.24 151.73,8.74 151.59,10.27 151.46,11.81 150.84,13.22 150.21,14.63 149.18,15.77 148.14,16.90 146.79,17.65 145.44,18.40 143.93,18.68 142.41,18.96 140.89,18.74 139.36,18.52 137.99,17.82 136.61,17.12 135.53,16.03 134.45,14.93 133.78,13.54 133.10,12.16 132.91,10.63 132.71,9.10 133.01,7.59 133.32,6.08 134.09,4.74 134.86,3.41 136.01,2.39 137.17,1.37 138.59,0.77 140.01,0.17 141.54,0.06 143.08,-0.04 144.57,0.33 146.07,0.71 147.36,1.55 148.65,2.40 149.60,3.60 150.56,4.81 151.08,6.26 151.60,7.71 151.63,9.26 151.66,10.80 151.19,12.27 150.73,13.74 149.82,14.98 148.91,16.22 148.91,16.22 148.91,16.22 147.52,17.40 146.13,18.59 142.67,21.86 139.21,25.13 136.28,28.22 133.34,31.31 129.40,35.78 125.46,40.26 120.60,46.45 115.75,52.63 110.14,60.10 104.54,67.57 98.32,75.89 92.10,84.22 86.40,92.14 80.69,100.05 75.10,107.89 69.51,115.74 59.29,113.87 49.07,112.01 47.53,107.74 45.99,103.48 43.11,96.72 40.23,89.97 37.69,85.36 35.16,80.75 31.90,75.30 28.63,69.84 24.45,63.39 20.27,56.94 15.09,49.00 9.91,41.06 4.85,31.75 -0.20,22.44 -4.24,12.73 -8.28,3.01 -8.52,1.98 -8.76,0.94 -8.75,-0.11 -8.74,-1.17 -8.47,-2.20 -8.20,-3.23 -7.69,-4.17 -7.19,-5.10 -6.47,-5.89 -5.76,-6.67 -4.87,-7.27 -3.99,-7.86 -2.99,-8.22 -1.99,-8.59 -0.94,-8.70 0.11,-8.81 1.16,-8.67 2.22,-8.53 3.21,-8.14 4.20,-7.75 5.06,-7.13 5.93,-6.52 6.62,-5.71 7.32,-4.91 7.80,-3.96 8.28,-3.01 8.28,-3.01 L 8.28,-3.01 Z"></path></g></svg>