<svg version="1.1" xmlns="http://www.w3.org/2000/svg" viewBox="0 0 361.97652644680056 456.72538761303076" width="1085.9295793404017" height="1370.1761628390923">
  <!-- svg-source:excalidraw -->
  
  <defs>
    <style class="style-fonts">
      @font-face {
        font-family: "Virgil";
        src: url("https://excalidraw.com/Virgil.woff2");
      }
      @font-face {
        font-family: "Cascadia";
        src: url("https://excalidraw.com/Cascadia.woff2");
      }
      @font-face {
        font-family: "Assistant";
        src: url("https://excalidraw.com/Assistant-Regular.woff2");
      }
    </style>
    
  </defs>
  <g transform="translate(10.631930872666999 10) rotate(0 57.77071268182044 115.3171918281796)" stroke="none"><path fill="#9c36b5" d="M 6.30,-2.74 Q 6.30,-2.74 10.10,6.52 13.91,15.80 20.43,28.62 26.95,41.45 36.45,58.73 45.96,76.02 55.58,93.67 65.21,111.32 73.63,127.41 82.06,143.50 89.29,157.92 96.52,172.34 101.62,182.92 106.71,193.49 110.11,201.04 113.51,208.59 115.80,213.29 118.08,218.00 120.67,222.87 123.26,227.73 123.54,228.94 123.81,230.15 123.69,231.38 123.57,232.61 123.06,233.74 122.55,234.87 121.70,235.78 120.86,236.69 119.77,237.28 118.68,237.87 117.46,238.08 116.23,238.29 115.01,238.10 113.79,237.91 112.69,237.34 111.59,236.77 110.73,235.87 109.87,234.98 109.34,233.86 108.81,232.74 108.66,231.51 108.52,230.28 108.77,229.07 109.03,227.86 109.66,226.79 110.29,225.72 111.23,224.91 112.16,224.10 113.31,223.63 114.46,223.16 115.69,223.09 116.93,223.01 118.13,223.33 119.33,223.65 120.36,224.34 121.39,225.02 122.15,226.00 122.91,226.98 123.31,228.15 123.72,229.33 123.73,230.57 123.74,231.80 123.35,232.98 122.97,234.16 122.22,235.15 121.48,236.15 120.46,236.85 119.44,237.55 118.25,237.90 117.06,238.24 115.82,238.18 114.59,238.12 113.43,237.67 112.27,237.23 111.32,236.43 110.37,235.64 109.72,234.58 109.08,233.52 109.08,233.53 109.08,233.53 107.52,228.05 105.96,222.58 104.67,217.82 103.39,213.06 100.17,205.65 96.94,198.23 91.83,187.76 86.72,177.29 79.45,163.00 72.19,148.71 63.70,132.77 55.21,116.83 45.45,99.29 35.69,81.74 25.90,64.42 16.11,47.11 9.11,34.03 2.11,20.95 -2.09,11.85 -6.30,2.74 -6.53,1.95 -6.77,1.16 -6.81,0.33 -6.85,-0.49 -6.69,-1.30 -6.53,-2.12 -6.19,-2.87 -5.84,-3.62 -5.32,-4.27 -4.80,-4.91 -4.14,-5.42 -3.48,-5.92 -2.72,-6.25 -1.96,-6.58 -1.15,-6.72 -0.33,-6.86 0.49,-6.80 1.31,-6.74 2.10,-6.49 2.89,-6.23 3.59,-5.79 4.30,-5.36 4.88,-4.76 5.46,-4.17 5.88,-3.46 6.30,-2.74 6.30,-2.74 L 6.30,-2.74 Z"></path></g><g transform="translate(351.97652644680056 36.96917885605217) rotate(0 -38.93509570299284 115.45988589619992)" stroke="none"><path fill="#9c36b5" d="M 6.09,2.44 Q 6.09,2.44 2.29,11.40 -1.49,20.35 -7.54,32.33 -13.59,44.30 -20.01,56.72 -26.43,69.14 -32.36,81.50 -38.29,93.85 -43.67,107.81 -49.04,121.77 -53.24,135.85 -57.44,149.94 -60.03,161.12 -62.61,172.30 -64.20,180.86 -65.79,189.43 -66.64,196.38 -67.49,203.34 -67.70,208.37 -67.91,213.39 -68.17,219.59 -68.42,225.78 -68.88,229.58 -69.35,233.38 -69.96,234.67 -70.58,235.97 -71.58,237.00 -72.57,238.03 -73.85,238.69 -75.12,239.35 -76.54,239.56 -77.96,239.78 -79.37,239.53 -80.79,239.29 -82.05,238.60 -83.31,237.92 -84.28,236.86 -85.26,235.81 -85.85,234.50 -86.43,233.20 -86.57,231.77 -86.71,230.34 -86.39,228.94 -86.07,227.55 -85.31,226.32 -84.56,225.10 -83.46,224.19 -82.36,223.27 -81.02,222.75 -79.68,222.24 -78.25,222.17 -76.81,222.11 -75.43,222.51 -74.06,222.91 -72.88,223.73 -71.70,224.54 -70.84,225.69 -69.99,226.85 -69.54,228.21 -69.10,229.57 -69.12,231.01 -69.13,232.44 -69.60,233.80 -70.08,235.15 -70.96,236.28 -71.84,237.42 -73.03,238.21 -74.23,239.00 -75.62,239.37 -77.00,239.74 -78.43,239.65 -79.86,239.55 -81.19,239.01 -82.52,238.46 -83.60,237.52 -84.68,236.58 -85.41,235.34 -86.14,234.11 -86.43,232.70 -86.72,231.30 -86.55,229.87 -86.38,228.45 -86.38,228.45 -86.38,228.45 -85.49,225.71 -84.59,222.96 -82.99,217.30 -81.38,211.64 -80.28,206.53 -79.17,201.43 -77.75,194.46 -76.32,187.50 -74.72,178.69 -73.12,169.89 -70.51,158.37 -67.89,146.84 -63.62,132.34 -59.35,117.84 -53.90,103.44 -48.45,89.03 -42.57,76.48 -36.69,63.93 -30.47,51.48 -24.25,39.03 -18.63,27.37 -13.00,15.72 -9.54,6.63 -6.09,-2.44 -5.70,-3.14 -5.32,-3.83 -4.79,-4.41 -4.25,-4.99 -3.59,-5.43 -2.93,-5.87 -2.19,-6.13 -1.44,-6.40 -0.65,-6.48 0.12,-6.56 0.91,-6.45 1.69,-6.34 2.43,-6.04 3.16,-5.75 3.80,-5.28 4.44,-4.82 4.96,-4.22 5.47,-3.62 5.82,-2.91 6.18,-2.20 6.35,-1.43 6.53,-0.66 6.51,0.12 6.49,0.91 6.29,1.68 6.09,2.44 6.09,2.44 L 6.09,2.44 Z"></path></g><g transform="translate(200.50677324204662 69.15688362831497) rotate(0 18.34638017418547 188.7842519923579)" stroke="none"><path fill="#9c36b5" d="M 6.33,0 Q 6.33,0 6.41,7.51 6.49,15.02 6.32,23.76 6.15,32.50 6.03,53.07 5.90,73.63 5.81,91.28 5.72,108.92 5.66,125.74 5.59,142.57 5.55,159.35 5.50,176.13 5.46,192.43 5.43,208.73 5.41,224.81 5.38,240.90 5.36,256.71 5.34,272.52 5.33,286.02 5.32,299.53 5.31,309.53 5.30,319.53 5.57,326.70 5.83,333.88 6.30,338.38 6.77,342.88 7.37,346.77 7.96,350.67 7.85,351.62 7.73,352.58 7.39,353.47 7.05,354.37 6.50,355.16 5.96,355.95 5.24,356.59 4.52,357.23 3.67,357.67 2.82,358.12 1.89,358.35 0.95,358.58 -0.00,358.58 -0.96,358.58 -1.89,358.35 -2.82,358.12 -3.67,357.67 -4.52,357.23 -5.24,356.59 -5.96,355.95 -6.50,355.16 -7.05,354.37 -7.39,353.47 -7.73,352.58 -7.85,351.62 -7.96,350.67 -12.35,345.62 -16.74,340.58 -20.81,335.26 -24.87,329.93 -29.46,324.47 -34.04,319.00 -38.58,314.17 -43.11,309.34 -46.91,305.95 -50.71,302.56 -55.22,298.92 -59.73,295.27 -61.28,293.93 -62.83,292.58 -63.53,291.58 -64.23,290.58 -64.67,289.44 -65.11,288.31 -65.27,287.10 -65.42,285.89 -65.29,284.68 -65.15,283.47 -64.72,282.32 -64.30,281.18 -63.61,280.17 -62.93,279.16 -62.02,278.35 -61.11,277.53 -60.04,276.96 -58.96,276.39 -57.78,276.09 -56.60,275.79 -55.38,275.78 -54.16,275.77 -52.97,276.05 -51.79,276.34 -50.70,276.90 -49.62,277.46 -48.70,278.26 -47.78,279.06 -40.71,286.28 -33.63,293.50 -23.59,305.36 -13.54,317.22 -6.22,325.91 1.09,334.59 6.98,341.52 12.86,348.45 17.53,353.40 22.20,358.36 25.45,361.33 28.70,364.29 25.45,368.36 22.21,372.44 24.24,366.70 26.28,360.96 30.22,354.16 34.15,347.36 39.33,339.85 44.51,332.34 49.74,325.22 54.97,318.10 59.55,312.05 64.12,306.00 67.81,301.16 71.51,296.32 74.28,292.58 77.05,288.84 80.10,284.71 83.14,280.58 84.82,279.04 86.50,277.50 87.85,276.72 89.19,275.94 90.72,275.63 92.24,275.32 93.79,275.52 95.33,275.72 96.73,276.39 98.13,277.07 99.24,278.16 100.35,279.25 101.06,280.64 101.76,282.03 101.98,283.57 102.21,285.11 101.93,286.64 101.65,288.17 100.90,289.53 100.14,290.89 99.00,291.94 97.85,292.99 96.42,293.62 95.00,294.25 93.45,294.39 91.90,294.53 90.39,294.17 88.87,293.80 87.56,292.98 86.24,292.15 85.25,290.95 84.27,289.74 83.72,288.29 83.17,286.83 83.11,285.28 83.05,283.72 83.50,282.23 83.94,280.74 84.84,279.47 85.73,278.20 86.99,277.28 88.24,276.36 89.73,275.89 91.21,275.42 92.76,275.45 94.32,275.47 95.79,276.00 97.25,276.52 98.47,277.48 99.69,278.45 100.54,279.75 101.39,281.05 101.78,282.56 102.17,284.07 102.06,285.62 101.95,287.17 101.34,288.61 100.74,290.04 99.71,291.21 98.69,292.38 98.69,292.37 98.69,292.37 97.69,293.03 96.69,293.68 93.31,296.71 89.93,299.74 86.78,303.01 83.62,306.28 79.79,310.58 75.96,314.89 71.68,320.64 67.39,326.39 63.01,333.66 58.64,340.92 54.65,348.50 50.66,356.08 47.67,362.39 44.68,368.69 41.61,374.68 38.54,380.67 30.66,381.63 22.78,382.58 19.83,378.98 16.89,375.37 14.06,371.86 11.23,368.35 6.75,363.26 2.27,358.18 -4.13,351.73 -10.54,345.27 -18.56,337.23 -26.59,329.19 -37.17,318.55 -47.76,307.92 -55.30,300.25 -62.83,292.58 -63.53,291.58 -64.23,290.58 -64.67,289.44 -65.11,288.31 -65.27,287.10 -65.42,285.89 -65.29,284.68 -65.15,283.47 -64.72,282.32 -64.30,281.18 -63.61,280.17 -62.93,279.16 -62.02,278.35 -61.11,277.53 -60.04,276.96 -58.96,276.39 -57.78,276.09 -56.60,275.79 -55.38,275.78 -54.16,275.77 -52.97,276.05 -51.79,276.34 -50.70,276.90 -49.62,277.46 -48.70,278.26 -47.79,279.06 -46.93,280.28 -46.08,281.50 -42.32,285.76 -38.57,290.02 -34.78,293.97 -30.99,297.92 -26.24,302.95 -21.49,307.97 -16.36,313.57 -11.24,319.16 -6.63,324.82 -2.02,330.49 1.05,335.29 4.13,340.09 6.05,345.38 7.96,350.67 7.85,351.62 7.73,352.58 7.39,353.47 7.05,354.37 6.50,355.16 5.96,355.95 5.24,356.59 4.52,357.23 3.67,357.67 2.82,358.12 1.89,358.35 0.96,358.58 0.00,358.58 -0.95,358.58 -1.89,358.35 -2.82,358.12 -3.67,357.67 -4.52,357.23 -5.24,356.59 -5.96,355.95 -6.50,355.16 -7.05,354.37 -7.39,353.47 -7.73,352.58 -7.85,351.62 -7.96,350.67 -7.37,346.77 -6.77,342.88 -6.30,338.38 -5.83,333.88 -5.57,326.70 -5.30,319.53 -5.31,309.53 -5.32,299.53 -5.33,286.02 -5.34,272.52 -5.36,256.71 -5.38,240.90 -5.41,224.81 -5.43,208.73 -5.46,192.43 -5.50,176.13 -5.55,159.35 -5.59,142.57 -5.66,125.74 -5.72,108.92 -5.81,91.28 -5.90,73.63 -6.03,53.07 -6.15,32.50 -6.32,23.76 -6.49,15.02 -6.41,7.51 -6.33,0 -6.23,-0.75 -6.14,-1.51 -5.87,-2.22 -5.60,-2.94 -5.17,-3.57 -4.73,-4.19 -4.16,-4.70 -3.59,-5.21 -2.92,-5.56 -2.24,-5.91 -1.50,-6.10 -0.76,-6.28 0.00,-6.28 0.76,-6.28 1.50,-6.10 2.24,-5.91 2.92,-5.56 3.59,-5.21 4.16,-4.70 4.73,-4.19 5.17,-3.56 5.60,-2.94 5.87,-2.22 6.14,-1.51 6.23,-0.75 6.33,0.00 6.33,0.00 L 6.33,0 Z"></path></g><g transform="translate(235.73182317648025 295.6837166123423) rotate(0 0 48.806467480045285)" stroke="none"><path fill="#9c36b5" d="M 7.50,0 Q 7.50,0 7.20,10.45 6.90,20.91 6.67,31.31 6.45,41.72 6.29,54.97 6.12,68.22 6.02,76.67 5.91,85.12 6.24,91.36 6.58,97.61 6.40,98.66 6.23,99.71 5.73,100.65 5.23,101.59 4.46,102.32 3.69,103.06 2.72,103.50 1.76,103.95 0.70,104.06 -0.35,104.18 -1.39,103.95 -2.43,103.72 -3.34,103.17 -4.26,102.62 -4.95,101.81 -5.63,101.00 -6.03,100.01 -6.42,99.02 -6.48,97.96 -6.54,96.90 -6.25,95.87 -5.97,94.84 -5.37,93.96 -4.77,93.08 -3.92,92.44 -3.08,91.79 -2.07,91.45 -1.06,91.11 0.00,91.11 1.06,91.11 2.07,91.45 3.08,91.79 3.93,92.44 4.77,93.08 5.37,93.96 5.97,94.85 6.25,95.87 6.54,96.90 6.48,97.96 6.42,99.02 6.03,100.01 5.63,101.00 4.94,101.81 4.25,102.63 3.34,103.17 2.43,103.72 1.39,103.95 0.35,104.18 -0.70,104.06 -1.76,103.95 -2.72,103.50 -3.69,103.05 -4.46,102.32 -5.24,101.59 -5.73,100.65 -6.23,99.71 -6.40,98.66 -6.58,97.61 -6.58,97.61 -6.58,97.61 -6.24,91.36 -5.91,85.12 -6.02,76.67 -6.12,68.22 -6.29,54.97 -6.45,41.72 -6.67,31.31 -6.90,20.91 -7.20,10.45 -7.50,0 -7.39,-0.89 -7.28,-1.79 -6.96,-2.64 -6.64,-3.48 -6.13,-4.23 -5.61,-4.97 -4.94,-5.57 -4.26,-6.17 -3.46,-6.59 -2.66,-7.02 -1.78,-7.23 -0.90,-7.45 0.00,-7.45 0.90,-7.45 1.78,-7.23 2.66,-7.01 3.46,-6.59 4.26,-6.17 4.94,-5.57 5.62,-4.97 6.13,-4.23 6.64,-3.48 6.96,-2.64 7.28,-1.79 7.39,-0.89 7.50,0.00 7.50,0.00 L 7.50,0 Z"></path></g></svg>