<svg version="1.1" xmlns="http://www.w3.org/2000/svg" viewBox="0 0 196.4369105696751 765.9872484220123" width="589.3107317090253" height="2297.961745266037">
  <!-- svg-source:excalidraw -->
  
  <defs>
    <style class="style-fonts">
      @font-face {
        font-family: "Virgil";
        src: url("https://excalidraw.com/Virgil.woff2");
      }
      @font-face {
        font-family: "Cascadia";
        src: url("https://excalidraw.com/Cascadia.woff2");
      }
      @font-face {
        font-family: "Assistant";
        src: url("https://excalidraw.com/Assistant-Regular.woff2");
      }
    </style>
    
  </defs>
  <g transform="translate(26.30311376008467 10) rotate(0 71.91534152475288 372.99362421100614)" stroke="none"><path fill="#9c36b5" d="M 6.24,0 Q 6.24,0 6.11,10.12 5.97,20.24 5.87,42.80 5.77,65.36 5.70,83.27 5.63,101.19 5.58,117.16 5.53,133.13 5.49,148.65 5.45,164.17 5.42,179.54 5.39,194.91 5.37,209.89 5.35,224.87 5.34,237.92 5.33,250.97 5.31,262.69 5.30,274.40 5.61,285.62 5.91,296.84 6.78,307.65 7.65,318.45 9.46,329.98 11.26,341.51 14.43,353.22 17.60,364.92 21.59,375.15 25.58,385.37 29.86,393.87 34.14,402.37 38.28,409.79 42.42,417.22 46.19,424.13 49.96,431.04 52.78,439.38 55.60,447.72 57.07,458.53 58.54,469.35 59.12,482.94 59.71,496.53 59.94,512.71 60.17,528.89 59.64,547.18 59.11,565.48 57.95,584.07 56.79,602.67 55.56,620.71 54.33,638.74 53.18,654.18 52.03,669.63 51.17,681.03 50.32,692.43 49.84,700.70 49.36,708.98 49.58,714.17 49.81,719.37 49.94,724.22 50.07,729.06 46.08,732.50 42.10,735.94 37.64,733.25 33.17,730.56 26.28,714.57 19.39,698.59 14.27,683.80 9.15,669.02 4.24,652.86 -0.66,636.70 -4.68,622.19 -8.69,607.68 -11.47,596.24 -14.24,584.81 -16.12,576.62 -18.01,568.43 -19.57,563.74 -21.14,559.06 -22.42,555.40 -23.71,551.74 -23.78,550.79 -23.85,549.84 -23.70,548.91 -23.54,547.97 -23.16,547.10 -22.79,546.23 -22.22,545.47 -21.64,544.71 -20.90,544.11 -20.17,543.52 -19.31,543.11 -18.45,542.71 -17.51,542.52 -16.58,542.34 -15.63,542.38 -14.69,542.42 -13.77,542.69 -12.86,542.96 -12.04,543.43 -11.22,543.91 -10.54,544.57 -9.86,545.23 -9.35,546.04 -8.85,546.84 -8.55,547.75 -8.25,548.65 -7.79,555.43 -7.33,562.21 -6.07,574.14 -4.80,586.07 -1.70,602.19 1.39,618.31 5.14,635.48 8.90,652.65 12.25,668.37 15.60,684.10 18.33,696.28 21.07,708.46 23.05,716.67 25.03,724.89 26.73,729.59 28.44,734.30 32.41,725.56 36.39,716.82 41.64,708.74 46.89,700.66 52.95,690.33 59.01,680.00 65.83,667.47 72.65,654.93 80.02,640.87 87.40,626.81 94.59,613.25 101.78,599.69 108.24,588.11 114.71,576.53 120.59,566.75 126.46,556.97 131.38,549.20 136.29,541.43 139.83,535.58 143.38,529.74 145.66,525.76 147.95,521.79 151.05,517.28 154.16,512.78 155.18,511.97 156.20,511.16 157.43,510.71 158.65,510.27 159.96,510.24 161.26,510.21 162.51,510.60 163.75,510.99 164.81,511.76 165.86,512.53 166.62,513.59 167.37,514.65 167.75,515.90 168.12,517.15 168.08,518.46 168.04,519.76 167.58,520.98 167.12,522.20 166.30,523.21 165.48,524.23 164.38,524.92 163.27,525.62 162.01,525.93 160.74,526.23 159.44,526.12 158.14,526.01 156.94,525.49 155.75,524.96 154.78,524.09 153.82,523.21 153.18,522.07 152.55,520.93 152.31,519.65 152.07,518.37 152.25,517.08 152.44,515.79 153.02,514.62 153.61,513.46 154.54,512.54 155.46,511.62 156.63,511.05 157.81,510.48 159.10,510.31 160.39,510.14 161.67,510.39 162.95,510.64 164.08,511.29 165.22,511.94 166.08,512.92 166.95,513.89 167.45,515.09 167.96,516.30 168.06,517.60 168.16,518.90 167.84,520.16 167.52,521.42 166.81,522.52 166.10,523.61 166.10,523.61 166.10,523.61 162.75,526.78 159.39,529.95 156.49,533.26 153.58,536.58 149.62,541.93 145.65,547.28 140.89,554.99 136.13,562.70 130.46,572.39 124.80,582.07 118.57,593.62 112.33,605.17 105.39,618.81 98.45,632.45 91.36,646.73 84.28,661.01 77.82,673.90 71.35,686.79 65.76,697.63 60.17,708.47 55.42,717.41 50.66,726.36 46.44,733.15 42.23,739.94 38.65,744.11 35.07,748.29 31.36,750.50 27.64,752.71 22.15,749.44 16.65,746.17 16.14,741.91 15.63,737.65 14.79,732.66 13.96,727.66 11.81,719.40 9.65,711.14 6.67,698.95 3.70,686.75 0.05,671.15 -3.58,655.54 -7.78,638.33 -11.99,621.13 -15.75,604.62 -19.51,588.11 -21.62,575.63 -23.74,563.14 -23.72,557.44 -23.71,551.74 -23.78,550.79 -23.85,549.85 -23.70,548.91 -23.54,547.97 -23.17,547.10 -22.79,546.23 -22.22,545.47 -21.64,544.71 -20.90,544.11 -20.17,543.52 -19.31,543.11 -18.45,542.71 -17.52,542.52 -16.58,542.34 -15.64,542.38 -14.69,542.42 -13.78,542.69 -12.86,542.96 -12.04,543.43 -11.22,543.91 -10.54,544.57 -9.86,545.23 -9.35,546.04 -8.85,546.84 -8.55,547.75 -8.25,548.65 -8.10,552.30 -7.94,555.95 -7.26,560.83 -6.57,565.70 -4.58,573.77 -2.59,581.83 0.40,593.00 3.39,604.16 7.73,618.38 12.07,632.61 17.38,648.30 22.69,663.99 28.29,678.06 33.89,692.14 39.60,707.46 45.31,722.78 41.24,720.76 37.18,718.75 37.92,713.52 38.66,708.30 39.23,699.98 39.79,691.65 40.64,680.25 41.48,668.84 42.62,653.44 43.76,638.03 44.97,620.02 46.18,602.02 47.31,583.60 48.44,565.17 48.94,547.12 49.44,529.06 49.17,513.03 48.89,497.01 48.29,483.91 47.69,470.81 46.37,461.01 45.05,451.21 42.55,443.69 40.06,436.17 36.64,429.26 33.23,422.34 28.98,414.72 24.73,407.09 20.25,398.14 15.76,389.19 11.60,378.43 7.43,367.68 4.14,355.41 0.84,343.15 -1.01,331.22 -2.87,319.30 -3.76,308.22 -4.66,297.14 -4.98,285.77 -5.30,274.40 -5.31,262.69 -5.33,250.97 -5.34,237.92 -5.35,224.87 -5.37,209.89 -5.39,194.91 -5.42,179.54 -5.45,164.17 -5.49,148.65 -5.53,133.13 -5.58,117.16 -5.63,101.19 -5.70,83.27 -5.77,65.36 -5.87,42.80 -5.97,20.24 -6.11,10.12 -6.24,0 -6.15,-0.74 -6.06,-1.49 -5.80,-2.19 -5.53,-2.90 -5.10,-3.52 -4.67,-4.14 -4.11,-4.64 -3.54,-5.14 -2.88,-5.49 -2.21,-5.84 -1.48,-6.02 -0.75,-6.20 0.00,-6.20 0.75,-6.20 1.48,-6.02 2.21,-5.84 2.88,-5.49 3.55,-5.14 4.11,-4.64 4.67,-4.14 5.10,-3.52 5.53,-2.90 5.80,-2.19 6.06,-1.49 6.15,-0.74 6.24,0.00 6.24,0.00 L 6.24,0 Z"></path></g></svg>